<svg viewBox="0 0 100 100" fill="none" xmlns="http://www.w3.org/2000/svg">
  <defs>
    <linearGradient id="logoGradient" x1="0%" y1="0%" x2="100%" y2="100%">
      <stop offset="0%" stop-color="#14b8a6" />
      <stop offset="50%" stop-color="#14b8a6" stop-opacity="0.85" />
      <stop offset="100%" stop-color="#14b8a6" stop-opacity="0.7" />
    </linearGradient>
    <linearGradient id="accentGradient" x1="100%" y1="0%" x2="0%" y2="100%">
      <stop offset="0%" stop-color="#ffffff" stop-opacity="0.9" />
      <stop offset="100%" stop-color="#ffffff" stop-opacity="0.6" />
    </linearGradient>
  </defs>
  
  <!-- Geometric base - hexagonal inspired shape -->
  <path
    d="M50 5 L90 25 L90 75 L50 95 L10 75 L10 25 Z"
    fill="url(#logoGradient)"
  />
  
  <!-- Angular accent cut - top right -->
  <path
    d="M70 5 L90 25 L90 15 L80 5 Z"
    fill="#14b8a6"
    opacity="0.5"
  />
  
  <!-- Modern geometric F -->
  <g>
    <!-- Vertical bar -->
    <path
      d="M32 28 L42 28 L42 72 L32 72 Z"
      fill="url(#accentGradient)"
    />
    
    <!-- Top horizontal bar - angled -->
    <path
      d="M42 28 L68 28 L72 33 L68 38 L42 38 Z"
      fill="url(#accentGradient)"
    />
    
    <!-- Middle horizontal bar - shorter, angled -->
    <path
      d="M42 46 L58 46 L62 51 L58 56 L42 56 Z"
      fill="url(#accentGradient)"
    />
  </g>
  
  <!-- Subtle geometric accent line -->
  <path
    d="M72 33 L78 40 L78 45 L72 38 Z"
    fill="#ffffff"
    opacity="0.3"
  />
</svg>
